<svg width="30" height="30" viewBox="0 0 30 30" fill="none" xmlns="http://www.w3.org/2000/svg">
<path d="M18.8707 15.0851C18.8707 15.8163 18.6538 16.5311 18.2476 17.139C17.8413 17.747 17.2639 18.2209 16.5884 18.5007C15.9128 18.7805 15.1695 18.8537 14.4523 18.7111C13.7352 18.5684 13.0764 18.2163 12.5594 17.6993C12.0423 17.1822 11.6902 16.5235 11.5476 15.8063C11.4049 15.0892 11.4781 14.3458 11.7579 13.6703C12.0378 12.9947 12.5116 12.4173 13.1196 12.0111C13.7276 11.6048 14.4424 11.388 15.1736 11.388C16.1532 11.391 17.0918 11.7815 17.7844 12.4742C18.4771 13.1669 18.8676 14.1055 18.8707 15.0851ZM26.7269 10.0016V20.1685C26.7269 21.8844 26.0453 23.5301 24.8319 24.7434C23.6186 25.9567 21.973 26.6384 20.257 26.6384H10.0901C8.37422 26.6384 6.72858 25.9567 5.51525 24.7434C4.30191 23.5301 3.62027 21.8844 3.62027 20.1685V10.0016C3.62027 8.28568 4.30191 6.64005 5.51525 5.42672C6.72858 4.21338 8.37422 3.53174 10.0901 3.53174L20.257 3.53174C21.973 3.53174 23.6186 4.21338 24.8319 5.42672C26.0453 6.64005 26.7269 8.28568 26.7269 10.0016ZM20.7192 15.0851C20.7192 13.9882 20.3939 12.9161 19.7846 12.0041C19.1752 11.0921 18.3091 10.3813 17.2958 9.9616C16.2825 9.54186 15.1674 9.43204 14.0917 9.64602C13.016 9.86 12.0278 10.3882 11.2523 11.1637C10.4767 11.9393 9.94853 12.9274 9.73455 14.0032C9.52058 15.0789 9.6304 16.1939 10.0501 17.2073C10.4699 18.2206 11.1807 19.0867 12.0926 19.696C13.0046 20.3054 14.0768 20.6306 15.1736 20.6306C16.6444 20.6306 18.0549 20.0464 19.0949 19.0064C20.1349 17.9664 20.7192 16.5558 20.7192 15.0851ZM22.5677 9.07733C22.5677 8.80313 22.4864 8.53508 22.3341 8.30709C22.1817 8.0791 21.9652 7.9014 21.7119 7.79647C21.4585 7.69153 21.1798 7.66408 20.9108 7.71757C20.6419 7.77107 20.3949 7.90311 20.201 8.097C20.0071 8.29089 19.875 8.53792 19.8216 8.80686C19.7681 9.07579 19.7955 9.35455 19.9004 9.60788C20.0054 9.86121 20.1831 10.0777 20.4111 10.2301C20.6391 10.3824 20.9071 10.4637 21.1813 10.4637C21.549 10.4637 21.9016 10.3177 22.1616 10.0577C22.4216 9.79766 22.5677 9.44503 22.5677 9.07733Z" fill="black"/>
</svg>
