<svg width="30" height="30" viewBox="0 0 30 30" fill="none" xmlns="http://www.w3.org/2000/svg">
<path d="M28.0257 7.69127C27.0768 8.12259 26.054 8.40604 24.9941 8.5416C26.0786 7.88845 26.9166 6.85327 27.311 5.60859C26.2881 6.22477 25.1543 6.65609 23.959 6.90256C22.9854 5.84274 21.6175 5.22656 20.0647 5.22656C17.1687 5.22656 14.8026 7.59268 14.8026 10.5134C14.8026 10.9324 14.8519 11.339 14.9381 11.7211C10.5509 11.4992 6.64438 9.39192 4.04411 6.20012C3.58814 6.97651 3.32934 7.88845 3.32934 8.84968C3.32934 10.6859 4.25361 12.3126 5.68314 13.2369C4.80817 13.2369 3.99482 12.9904 3.28005 12.6207V12.6577C3.28005 15.221 5.10393 17.3653 7.51935 17.8459C6.74386 18.0581 5.92973 18.0876 5.14091 17.9321C5.47562 18.9827 6.13115 19.9019 7.01534 20.5607C7.89952 21.2194 8.96792 21.5845 10.0703 21.6046C8.20162 23.0839 5.88524 23.8836 3.50187 23.8721C3.08287 23.8721 2.66387 23.8474 2.24487 23.7981C4.58635 25.3016 7.37147 26.1766 10.3538 26.1766C20.0647 26.1766 25.4008 18.117 25.4008 11.1295C25.4008 10.8954 25.4008 10.6736 25.3885 10.4394C26.4237 9.70001 27.311 8.76342 28.0257 7.69127Z" fill="black"/>
</svg>
